<?xml version="1.0" encoding="UTF-8" standalone="no"?>
<!-- Created with Inkscape (http://www.inkscape.org/) -->

<svg
   width="512"
   height="512"
   viewBox="0 0 135.46666 135.46667"
   version="1.1"
   id="svg1"
   inkscape:version="1.4 (86a8ad7, 2024-10-11)"
   xml:space="preserve"
   sodipodi:docname="BattleChinchilla_south.svg"
   inkscape:export-filename="BC_Chinchilla_south.png"
   inkscape:export-xdpi="96"
   inkscape:export-ydpi="96"
   xmlns:inkscape="http://www.inkscape.org/namespaces/inkscape"
   xmlns:sodipodi="http://sodipodi.sourceforge.net/DTD/sodipodi-0.dtd"
   xmlns:xlink="http://www.w3.org/1999/xlink"
   xmlns="http://www.w3.org/2000/svg"
   xmlns:svg="http://www.w3.org/2000/svg"
   xmlns:rdf="http://www.w3.org/1999/02/22-rdf-syntax-ns#"
   xmlns:cc="http://creativecommons.org/ns#"
   xmlns:dc="http://purl.org/dc/elements/1.1/"><sodipodi:namedview
     id="namedview1"
     pagecolor="#ffffff"
     bordercolor="#000000"
     borderopacity="0.25"
     inkscape:showpageshadow="2"
     inkscape:pageopacity="0.0"
     inkscape:pagecheckerboard="0"
     inkscape:deskcolor="#d1d1d1"
     inkscape:document-units="mm"
     showguides="true"
     showgrid="true"
     inkscape:zoom="1.0467523"
     inkscape:cx="222.59325"
     inkscape:cy="190.5895"
     inkscape:window-width="2560"
     inkscape:window-height="1377"
     inkscape:window-x="2552"
     inkscape:window-y="-8"
     inkscape:window-maximized="1"
     inkscape:current-layer="layer1" /><defs
     id="defs1"><linearGradient
       id="linearGradient1"
       inkscape:collect="always"><stop
         style="stop-color:#43451a;stop-opacity:1;"
         offset="0"
         id="stop1" /><stop
         style="stop-color:#5e601f;stop-opacity:1;"
         offset="1"
         id="stop2" /></linearGradient><linearGradient
       inkscape:collect="always"
       xlink:href="#linearGradient1"
       id="linearGradient2"
       x1="70.370598"
       y1="29.831913"
       x2="67.48851"
       y2="82.275314"
       gradientUnits="userSpaceOnUse" /><linearGradient
       inkscape:collect="always"
       xlink:href="#linearGradient1-3"
       id="linearGradient2-2"
       x1="67.014854"
       y1="5.1720123"
       x2="67.081505"
       y2="63.742554"
       gradientUnits="userSpaceOnUse"
       gradientTransform="rotate(180,67.449985,56.309526)" /><linearGradient
       id="linearGradient1-3"
       inkscape:collect="always"><stop
         style="stop-color:#fef39b;stop-opacity:1;"
         offset="0"
         id="stop1-2" /><stop
         style="stop-color:#6b6b6a;stop-opacity:1;"
         offset="1"
         id="stop2-2" /></linearGradient></defs><g
     inkscape:label="Layer 1"
     inkscape:groupmode="layer"
     id="layer1"><g
       id="g1"
       inkscape:label="Apparel"
       transform="translate(1.5875,3.7914892)"><path
         style="fill:url(#linearGradient2);stroke:#000000;stroke-width:3.2;stroke-linecap:round;stroke-linejoin:round;stroke-dasharray:none"
         d="M 30.93053,86.54879 C 50.687674,78.19135 78.40561,73.484391 102.43603,87.439823 112.22509,66.841857 107.14399,45.00809 89.022032,31.150402 64.657554,37.310876 58.027561,32.967011 44.28825,30.49082 22.260113,49.721523 20.977112,73.705847 30.93053,86.54879 Z"
         id="path1"
         sodipodi:nodetypes="ccccc" /><path
         style="fill:#383a16;fill-opacity:1;stroke:#000000;stroke-width:1;stroke-linecap:round;stroke-linejoin:round"
         d="m 30.93053,86.54879 c 23.352965,-9.744705 49.138826,-11.849864 71.5055,0.891033 l 2.10659,-5.079715 c -23.581816,-12.871245 -51.546601,-13.6715 -76.51985,-0.55565 0.662354,1.461005 1.631608,3.042449 2.90776,4.744332 z"
         id="path2"
         sodipodi:nodetypes="ccccc" /><path
         style="fill:#383a16;fill-opacity:1;stroke:#000000;stroke-width:1;stroke-linecap:round;stroke-linejoin:round"
         d="m 44.28825,30.49082 -4.013484,3.758338 c 19.738927,4.303082 35.916448,6.753145 52.362727,0.632818 L 89.022032,31.150402 C 76.674308,35.080058 61.861988,34.748159 44.28825,30.49082 Z"
         id="path3"
         sodipodi:nodetypes="ccccc" /><path
         style="fill:none;fill-opacity:1;stroke:#000000;stroke-width:1;stroke-linecap:round;stroke-linejoin:round"
         d="M 62.201518,38.063597 C 57.812271,49.550564 57.986839,60.40622 62.697166,71.219144"
         id="path4"
         sodipodi:nodetypes="cc" /><path
         style="fill:none;fill-opacity:1;stroke:#000000;stroke-width:1;stroke-linecap:round;stroke-linejoin:round"
         d="m 75.704641,71.641062 c 4.666207,-10.996086 5.188927,-21.890237 0.08152,-33.223344"
         id="path5"
         sodipodi:nodetypes="cc" /><path
         style="fill:none;fill-opacity:1;stroke:#000000;stroke-width:1;stroke-linecap:round;stroke-linejoin:round"
         d="M 59.040193,53.969075 C 44.5662,58.380715 35.180588,57.809013 27.216725,54.79348"
         id="path6"
         sodipodi:nodetypes="cc" /><path
         style="fill:none;fill-opacity:1;stroke:#000000;stroke-width:1;stroke-linecap:round;stroke-linejoin:round"
         d="m 79.41048,54.133741 c 8.962758,1.338987 11.014571,4.827451 26.83883,2.863241"
         id="path7"
         sodipodi:nodetypes="cc" /><path
         style="fill:url(#linearGradient2-2);stroke-width:2.6;stroke-linejoin:round"
         d="m 82.342617,102.91186 c -2.478304,-1.15314 -5.731115,-3.616977 -7.971108,-6.676607 -0.560876,-1.90896 -0.823864,-3.25193 -0.431499,-4.20765 3.654834,-6.00014 5.361826,-9.21698 9.321674,-9.57707 2.337963,-0.21261 9.181426,-1.76188 5.160018,-8.92085 -10.35588,-18.43568 -31.779368,-19.56627 -40.442549,-0.75829 -3.330269,7.2301 2.290902,10.27246 4.525129,10.89298 3.654221,1.01492 4.974722,4.2598 5.98754,7.6855 0.327676,1.75754 0.357464,2.08521 -0.08937,4.02148 -0.685141,3.66402 -1.608591,5.779017 -4.915142,7.059937 9.49305,7.85043 19.816585,10.18775 28.855307,0.48057 z"
         id="path1-6"
         sodipodi:nodetypes="cccsssscccc" /><path
         style="fill:none;stroke:#000000;stroke-width:2.6;stroke-linecap:round;stroke-linejoin:round;stroke-opacity:1"
         d="m 83.261684,82.450533 c 2.337963,-0.21261 9.181426,-1.76188 5.160018,-8.92085 -10.35588,-18.43568 -31.779368,-19.56627 -40.442549,-0.75829 -3.330269,7.2301 2.290902,10.27246 4.525129,10.89298 m 0.983028,18.766917 c 9.49305,7.85044 19.816585,10.18775 28.855307,0.48058"
         id="path1-1"
         sodipodi:nodetypes="cssccc" /></g><rect
       style="display:none;fill:#000000;stroke-width:2.6;stroke-linecap:round;stroke-linejoin:round"
       id="rect3"
       width="135.46666"
       height="135.46666"
       x="1.5875"
       y="3.7914891" /><path
       style="display:none;fill:#ff0000;fill-opacity:1;stroke-width:2.6;stroke-linejoin:round"
       d="m 83.930153,106.70335 c -2.47831,-1.15314 -5.73112,-3.61698 -7.97111,-6.67661 -0.56088,-1.908958 -0.82386,-3.251928 -0.4315,-4.207648 3.65483,-6.00014 5.36183,-9.21698 9.32167,-9.57707 2.33797,-0.21261 9.18143,-1.76188 5.16002,-8.92085 -10.35588,-18.43568 -31.77937,-19.56627 -40.44255,-0.75829 -3.33027,7.2301 2.2909,10.27246 4.52513,10.89298 3.65422,1.01492 4.97472,4.2598 5.98754,7.6855 0.32768,1.75754 0.35747,2.08521 -0.0894,4.02148 -0.68514,3.664018 -1.60859,5.779018 -4.91514,7.059938 9.49305,7.85043 19.81658,10.18775 28.85531,0.48057 z"
       id="path1-6-4"
       sodipodi:nodetypes="cccsssscccc" /><path
       style="display:none;fill:none;stroke:#000000;stroke-width:2.6;stroke-linecap:round;stroke-linejoin:round;stroke-opacity:1"
       d="m 84.849213,86.242022 c 2.33797,-0.21261 9.18143,-1.76188 5.16002,-8.92085 -10.35588,-18.43568 -31.77937,-19.56627 -40.44255,-0.75829 -3.33027,7.2301 2.2909,10.27246 4.52513,10.89298 m 0.98303,18.766918 c 9.49305,7.85044 19.81658,10.18775 28.85531,0.48058"
       id="path1-1-3"
       sodipodi:nodetypes="cssccc" /><g
       id="g3"
       inkscape:label="Mask"
       style="display:none"
       transform="translate(1.5875,3.7914892)"><rect
         style="fill:#000000;stroke-width:2.6;stroke-linecap:round;stroke-linejoin:round"
         id="rect1"
         width="135.46666"
         height="135.46666"
         x="-1.5875"
         y="-3.7914891" /><path
         style="fill:#ff0000;fill-opacity:1;stroke-width:2.6;stroke-linejoin:round"
         d="m 82.342652,102.91186 c -2.47831,-1.15314 -5.73112,-3.616977 -7.97111,-6.676607 -0.56088,-1.90896 -0.82386,-3.25193 -0.4315,-4.20765 3.65483,-6.00014 5.36183,-9.21698 9.32167,-9.57707 2.33797,-0.21261 9.18143,-1.76188 5.16002,-8.92085 -10.35588,-18.43568 -31.77937,-19.56627 -40.44255,-0.75829 -3.33027,7.2301 2.2909,10.27246 4.52513,10.89298 3.65422,1.01492 4.97472,4.2598 5.98754,7.6855 0.32768,1.75754 0.35747,2.08521 -0.0894,4.02148 -0.68514,3.66402 -1.60859,5.779017 -4.91514,7.059937 9.49305,7.85043 19.81658,10.18775 28.85531,0.48057 z"
         id="path8"
         sodipodi:nodetypes="cccsssscccc" /><path
         style="fill:none;stroke:#000000;stroke-width:2.6;stroke-linecap:round;stroke-linejoin:round;stroke-opacity:1"
         d="m 83.261712,82.450533 c 2.33797,-0.21261 9.18143,-1.76188 5.16002,-8.92085 -10.35588,-18.43568 -31.77937,-19.56627 -40.44255,-0.75829 -3.33027,7.2301 2.2909,10.27246 4.52513,10.89298 m 0.98303,18.766917 c 9.49305,7.85044 19.81658,10.18775 28.85531,0.48058"
         id="path9"
         sodipodi:nodetypes="cssccc" /></g></g><metadata
     id="metadata9"><rdf:RDF><cc:Work
         rdf:about=""><dc:creator><cc:Agent><dc:title>Kieran David Evans</dc:title></cc:Agent></dc:creator><dc:rights><cc:Agent><dc:title>CC BY-SA - https://creativecommons.org/licenses/by-sa/4.0/</dc:title></cc:Agent></dc:rights><cc:license
           rdf:resource="http://creativecommons.org/licenses/by-sa/4.0/" /></cc:Work><cc:License
         rdf:about="http://creativecommons.org/licenses/by-sa/4.0/"><cc:permits
           rdf:resource="http://creativecommons.org/ns#Reproduction" /><cc:permits
           rdf:resource="http://creativecommons.org/ns#Distribution" /><cc:requires
           rdf:resource="http://creativecommons.org/ns#Notice" /><cc:requires
           rdf:resource="http://creativecommons.org/ns#Attribution" /><cc:permits
           rdf:resource="http://creativecommons.org/ns#DerivativeWorks" /><cc:requires
           rdf:resource="http://creativecommons.org/ns#ShareAlike" /></cc:License></rdf:RDF></metadata></svg>
