<?xml version="1.0" encoding="UTF-8" standalone="no"?>
<!-- Created with Inkscape (http://www.inkscape.org/) -->

<svg
   width="512"
   height="512"
   viewBox="0 0 135.46666 135.46667"
   version="1.1"
   id="svg1"
   inkscape:version="1.4 (86a8ad7, 2024-10-11)"
   xml:space="preserve"
   sodipodi:docname="BattleChinchillaArmour_east.svg"
   inkscape:export-filename="BC_Chinchilla_eastm.png"
   inkscape:export-xdpi="96"
   inkscape:export-ydpi="96"
   xmlns:inkscape="http://www.inkscape.org/namespaces/inkscape"
   xmlns:sodipodi="http://sodipodi.sourceforge.net/DTD/sodipodi-0.dtd"
   xmlns:xlink="http://www.w3.org/1999/xlink"
   xmlns="http://www.w3.org/2000/svg"
   xmlns:svg="http://www.w3.org/2000/svg"
   xmlns:rdf="http://www.w3.org/1999/02/22-rdf-syntax-ns#"
   xmlns:cc="http://creativecommons.org/ns#"
   xmlns:dc="http://purl.org/dc/elements/1.1/"><sodipodi:namedview
     id="namedview1"
     pagecolor="#ffffff"
     bordercolor="#000000"
     borderopacity="0.25"
     inkscape:showpageshadow="2"
     inkscape:pageopacity="0.0"
     inkscape:pagecheckerboard="0"
     inkscape:deskcolor="#d1d1d1"
     inkscape:document-units="mm"
     showguides="true"
     showgrid="true"
     inkscape:zoom="2.0935046"
     inkscape:cx="367.56547"
     inkscape:cy="118.70048"
     inkscape:window-width="2560"
     inkscape:window-height="1377"
     inkscape:window-x="2552"
     inkscape:window-y="-8"
     inkscape:window-maximized="1"
     inkscape:current-layer="g3" /><defs
     id="defs1"><inkscape:path-effect
       effect="simplify"
       id="path-effect19"
       is_visible="true"
       lpeversion="1.3"
       threshold="65.853659"
       steps="1"
       smooth_angles="360"
       helper_size="0"
       simplify_individual_paths="false"
       simplify_just_coalesce="false" /><inkscape:path-effect
       effect="simplify"
       id="path-effect18"
       is_visible="true"
       lpeversion="1.3"
       threshold="65.853659"
       steps="1"
       smooth_angles="360"
       helper_size="0"
       simplify_individual_paths="false"
       simplify_just_coalesce="false" /><linearGradient
       id="linearGradient10"
       inkscape:collect="always"><stop
         style="stop-color:#43451a;stop-opacity:1;"
         offset="0"
         id="stop11" /><stop
         style="stop-color:#5e601f;stop-opacity:1;"
         offset="1"
         id="stop12" /></linearGradient><linearGradient
       inkscape:collect="always"
       xlink:href="#linearGradient10"
       id="linearGradient12"
       x1="72.565399"
       y1="36.103966"
       x2="77.482437"
       y2="97.152779"
       gradientUnits="userSpaceOnUse" /><linearGradient
       inkscape:collect="always"
       xlink:href="#linearGradient1"
       id="linearGradient2"
       x1="107.5781"
       y1="21.471825"
       x2="103.25489"
       y2="44.865955"
       gradientUnits="userSpaceOnUse" /><linearGradient
       id="linearGradient1"
       inkscape:collect="always"><stop
         style="stop-color:#fef39b;stop-opacity:1;"
         offset="0"
         id="stop1" /><stop
         style="stop-color:#6b6b6a;stop-opacity:1;"
         offset="1"
         id="stop2" /></linearGradient></defs><g
     inkscape:label="Layer 1"
     inkscape:groupmode="layer"
     id="layer1"><g
       id="g1"
       inkscape:label="Apparel"><g
         id="g2"
         transform="matrix(1.0830393,0,0,1.0879854,-8.634163,-5.4632176)"><path
           style="fill:url(#linearGradient12);fill-opacity:1;stroke:#000000;stroke-width:1;stroke-linecap:round;stroke-linejoin:round;stroke-dasharray:none;stroke-opacity:1"
           d="m 72.565399,36.103967 c 23.925919,39.481015 53.771451,44.896804 54.060601,44.629896 -5.71944,3.038453 -12.59466,7.440841 -14.02452,12.385774 -8.2217,-2.919298 -11.63044,1.071332 -16.992418,7.207813 -5.466943,-1.174426 -10.262772,0.65108 -14.188679,3.22706 C 75.879675,100.81394 66.011874,97.170908 58.088066,99.196542 52.785668,98.839078 48.43651,95.860203 45.040592,90.259918 46.29172,82.693575 44.206508,75.365541 38.784955,68.275818 42.180872,47.542847 53.44102,36.818897 72.565399,36.103967 Z"
           id="path1"
           sodipodi:nodetypes="ccccccccc" /><path
           style="fill:#383a16;fill-opacity:1;stroke:#000000;stroke-width:1;stroke-linecap:round;stroke-linejoin:round;stroke-dasharray:none;stroke-opacity:1"
           d="M 68.222494,36.455389 C 97.588306,84.964603 102.62807,69.299685 118.82685,85.572364 L 126.626,80.733863 C 108.04965,75.222677 87.829065,60.619843 72.565399,36.103967 Z"
           id="path12"
           sodipodi:nodetypes="ccccc" /><path
           style="fill:none;fill-opacity:1;stroke:#000000;stroke-width:1;stroke-linecap:round;stroke-linejoin:round;stroke-dasharray:none;stroke-opacity:1"
           d="m 75.434559,47.900878 c -15.48935,3.636631 -24.982721,8.569033 -32.36953,20.784824"
           id="path13"
           sodipodi:nodetypes="cc" /><path
           style="fill:none;fill-opacity:1;stroke:#000000;stroke-width:1;stroke-linecap:round;stroke-linejoin:round;stroke-dasharray:none;stroke-opacity:1"
           d="m 59.289576,53.363574 c 17.919666,14.19895 23.05891,33.035179 26.913101,47.724786"
           id="path17"
           sodipodi:nodetypes="cc" /><path
           id="path20"
           style="fill:#3b3c17;fill-opacity:1;stroke:#000000;stroke-width:1;stroke-linecap:round;stroke-linejoin:round;stroke-dasharray:none;stroke-opacity:1"
           d="m 38.784955,68.275818 c 5.358798,6.87183 7.44401,14.19986 6.255637,21.9841 l 2.678866,3.65668 c 0.278716,-10.31472 0.614839,-20.63826 -8.172307,-29.55823 z"
           sodipodi:nodetypes="ccccc" /><path
           id="path21"
           style="fill:#3b3c17;fill-opacity:1;stroke:#000000;stroke-width:1;stroke-linecap:round;stroke-linejoin:round;stroke-dasharray:none;stroke-opacity:1"
           d="m 55.25617,98.73249 2.831896,0.46405 c 6.476774,-2.074736 16.344575,1.5683 23.332317,4.35797 l 3.049204,-1.72987 M 55.25617,98.73249 c 10.199778,-6.328024 21.293249,0.985621 29.213417,3.09215"
           sodipodi:nodetypes="cccccc" /><path
           id="path22"
           style="fill:#3b3c17;fill-opacity:1;stroke:#000000;stroke-width:1;stroke-linecap:round;stroke-linejoin:round;stroke-dasharray:none;stroke-opacity:1"
           d="m 113.71106,90.278465 -1.10958,2.84117 C 104.95685,90.072375 101.5481,94.063 95.609062,100.32745 l -3.602641,-0.362538 c 6.852142,-8.09819 11.992779,-13.265447 21.704639,-9.686447"
           sodipodi:nodetypes="ccccc" /></g><path
         style="display:inline;fill:none;stroke:#000000;stroke-width:2.6;stroke-linecap:butt;stroke-linejoin:round;stroke-dasharray:none"
         d="m 103.25489,44.865954 c 1.22674,-0.07516 13.88325,3.856462 20.82487,5.784693 l 1.96964,-3.018676 c 7.75149,1.600851 10.28391,-6.797894 7.03513,-10.294466 C 112.48955,15.171673 94.984615,12.346209 69.005103,19.083829 c -4.524037,1.17328 -2.022128,7.751489 1.769361,11.627234 l -1.26383,4.802552 c 3.243831,0.863617 6.870519,2.883872 7.734305,2.500565"
         id="path1-5"
         sodipodi:nodetypes="cccssccc" /><path
         style="display:inline;fill:url(#linearGradient2);stroke:none;stroke-width:2.3;stroke-linecap:round;stroke-linejoin:round;stroke-dasharray:none"
         d="m 103.25489,44.865954 20.82489,5.784693 1.96963,-3.018676 c 7.75149,1.600851 10.28391,-6.797894 7.03513,-10.294466 C 112.48955,15.171673 94.984617,12.346209 69.005103,19.083829 c -4.524037,1.17328 -2.022128,7.751489 1.769361,11.627234 l -1.26383,4.802552 7.734305,2.500565 c 0.31477,-2.576225 2.544843,-4.154794 4.398461,-6.987162 4.971063,-4.423404 8.825743,-2.359147 11.121699,-1.832551 4.39425,3.987852 7.015877,6.567747 10.489791,15.671487 z"
         id="path1-6"
         sodipodi:nodetypes="cccsscccccc" /><path
         style="display:inline;fill:#000000;fill-opacity:0.273352;stroke:none;stroke-width:1;stroke-linecap:round;stroke-linejoin:round"
         d="m 77.244939,38.01418 c 0.226151,-1.664547 0.84243,-2.414162 2.366246,-4.284052 l -8.836721,-3.019065 -1.26383,4.802552 z"
         id="path2"
         sodipodi:nodetypes="ccccc" /><path
         style="display:inline;fill:#000000;fill-opacity:0.273352;stroke:none;stroke-width:1;stroke-linecap:round;stroke-linejoin:round"
         d="m 126.04941,47.631971 -24.61709,-7.124745 1.82257,4.358728 20.82489,5.784693 z"
         id="path3"
         sodipodi:nodetypes="ccccc" /></g><g
       id="g3"
       inkscape:label="Mask"
       style="display:none"><rect
         style="display:inline;fill:#000000;fill-opacity:1;stroke-width:2.6;stroke-linecap:round;stroke-linejoin:round"
         id="rect3"
         width="135.467"
         height="135.46666"
         x="0"
         y="0" /><path
         style="display:inline;fill:none;stroke:#000000;stroke-width:2.6;stroke-linecap:butt;stroke-linejoin:round;stroke-dasharray:none"
         d="m 103.25489,44.865954 c 1.22674,-0.07516 13.88325,3.856462 20.82487,5.784693 l 1.96964,-3.018676 c 7.75149,1.600851 10.28391,-6.797894 7.03513,-10.294466 C 112.48955,15.171673 94.984619,12.346209 69.005099,19.083829 c -4.52403,1.17328 -2.02212,7.751489 1.76936,11.627234 l -1.26383,4.802552 c 3.24384,0.863617 6.87052,2.883872 7.73431,2.500565"
         id="path1-5-7"
         sodipodi:nodetypes="cccssccc" /><path
         style="display:inline;fill:#ff0000;fill-opacity:1;stroke:none;stroke-width:2.3;stroke-linecap:round;stroke-linejoin:round;stroke-dasharray:none"
         d="m 103.25489,44.865954 20.82489,5.784693 1.96963,-3.018676 c 7.75149,1.600851 10.28391,-6.797894 7.03513,-10.294466 C 112.48955,15.171673 94.984619,12.346209 69.005099,19.083829 c -4.52403,1.17328 -2.02212,7.751489 1.76936,11.627234 l -1.26383,4.802552 7.73431,2.500565 c 0.31477,-2.576225 2.54484,-4.154794 4.39846,-6.987162 4.97106,-4.423404 8.82574,-2.359147 11.1217,-1.832551 4.39425,3.987852 7.01588,6.567747 10.489791,15.671487 z"
         id="path1-6-1"
         sodipodi:nodetypes="cccsscccccc" /><path
         style="display:inline;fill:#000000;fill-opacity:0.273352;stroke:none;stroke-width:1;stroke-linecap:round;stroke-linejoin:round"
         d="m 77.244939,38.01418 c 0.22615,-1.664547 0.84243,-2.414162 2.36624,-4.284052 l -8.83672,-3.019065 -1.26383,4.802552 z"
         id="path2-1"
         sodipodi:nodetypes="ccccc" /><path
         style="display:inline;fill:#000000;fill-opacity:0.273352;stroke:none;stroke-width:1;stroke-linecap:round;stroke-linejoin:round"
         d="m 126.04941,47.631971 -24.61709,-7.124745 1.82257,4.358728 20.82489,5.784693 z"
         id="path3-5"
         sodipodi:nodetypes="ccccc" /></g></g><metadata
     id="metadata9"><rdf:RDF><cc:Work
         rdf:about=""><dc:creator><cc:Agent><dc:title>Kieran David Evans</dc:title></cc:Agent></dc:creator><dc:rights><cc:Agent><dc:title>CC BY-SA - https://creativecommons.org/licenses/by-sa/4.0/</dc:title></cc:Agent></dc:rights><cc:license
           rdf:resource="http://creativecommons.org/licenses/by-sa/4.0/" /></cc:Work><cc:License
         rdf:about="http://creativecommons.org/licenses/by-sa/4.0/"><cc:permits
           rdf:resource="http://creativecommons.org/ns#Reproduction" /><cc:permits
           rdf:resource="http://creativecommons.org/ns#Distribution" /><cc:requires
           rdf:resource="http://creativecommons.org/ns#Notice" /><cc:requires
           rdf:resource="http://creativecommons.org/ns#Attribution" /><cc:permits
           rdf:resource="http://creativecommons.org/ns#DerivativeWorks" /><cc:requires
           rdf:resource="http://creativecommons.org/ns#ShareAlike" /></cc:License></rdf:RDF></metadata></svg>
