<?xml version="1.0" encoding="UTF-8" standalone="no"?>
<!-- Created with Inkscape (http://www.inkscape.org/) -->

<svg
   width="512"
   height="512"
   viewBox="0 0 135.46666 135.46667"
   version="1.1"
   id="svg1"
   inkscape:version="1.4 (86a8ad7, 2024-10-11)"
   xml:space="preserve"
   sodipodi:docname="BattleChinchilla_north.svg"
   inkscape:export-filename="BC_Chinchilla_north.png"
   inkscape:export-xdpi="96"
   inkscape:export-ydpi="96"
   xmlns:inkscape="http://www.inkscape.org/namespaces/inkscape"
   xmlns:sodipodi="http://sodipodi.sourceforge.net/DTD/sodipodi-0.dtd"
   xmlns:xlink="http://www.w3.org/1999/xlink"
   xmlns="http://www.w3.org/2000/svg"
   xmlns:svg="http://www.w3.org/2000/svg"
   xmlns:rdf="http://www.w3.org/1999/02/22-rdf-syntax-ns#"
   xmlns:cc="http://creativecommons.org/ns#"
   xmlns:dc="http://purl.org/dc/elements/1.1/"><sodipodi:namedview
     id="namedview1"
     pagecolor="#ffffff"
     bordercolor="#000000"
     borderopacity="0.25"
     inkscape:showpageshadow="2"
     inkscape:pageopacity="0.0"
     inkscape:pagecheckerboard="0"
     inkscape:deskcolor="#d1d1d1"
     inkscape:document-units="mm"
     showguides="true"
     showgrid="true"
     inkscape:zoom="1.0467523"
     inkscape:cx="97.444257"
     inkscape:cy="279.43574"
     inkscape:window-width="2560"
     inkscape:window-height="1377"
     inkscape:window-x="2552"
     inkscape:window-y="-8"
     inkscape:window-maximized="1"
     inkscape:current-layer="layer1" /><defs
     id="defs1"><linearGradient
       id="linearGradient3"
       inkscape:collect="always"><stop
         style="stop-color:#43451a;stop-opacity:1;"
         offset="0"
         id="stop3" /><stop
         style="stop-color:#5e601f;stop-opacity:1;"
         offset="1"
         id="stop4" /></linearGradient><linearGradient
       inkscape:collect="always"
       xlink:href="#linearGradient3"
       id="linearGradient4"
       x1="69.131561"
       y1="41.452061"
       x2="65.009315"
       y2="109.68771"
       gradientUnits="userSpaceOnUse" /><linearGradient
       inkscape:collect="always"
       xlink:href="#linearGradient1"
       id="linearGradient2"
       x1="67.014854"
       y1="5.1720123"
       x2="67.081505"
       y2="63.742554"
       gradientUnits="userSpaceOnUse" /><linearGradient
       id="linearGradient1"
       inkscape:collect="always"><stop
         style="stop-color:#fef39b;stop-opacity:1;"
         offset="0"
         id="stop1" /><stop
         style="stop-color:#6b6b6a;stop-opacity:1;"
         offset="1"
         id="stop2" /></linearGradient></defs><g
     inkscape:label="Layer 1"
     inkscape:groupmode="layer"
     id="layer1"><g
       id="g8"
       inkscape:label="Apparel"
       style="display:inline"><path
         style="fill:url(#linearGradient4);stroke:#000000;stroke-width:3.3;stroke-linecap:round;stroke-linejoin:round;stroke-dasharray:none"
         d="M 45.750634,36.398296 C 62.264676,43.307231 79.705526,43.13872 91.501271,35.892762 113.97199,57.611506 114.04493,91.346735 85.434888,112.98638 69.93191,109.11063 54.850208,108.68936 46.761698,110.20595 28.56861,95.71709 12.511293,62.246864 45.750634,36.398296 Z"
         id="path1"
         sodipodi:nodetypes="ccccc" /><path
         style="fill:#383a16;stroke:#000000;stroke-width:1;stroke-linecap:round;stroke-linejoin:round"
         d="m 45.750633,36.398295 c 14.105315,6.860318 29.355528,6.691806 45.750638,-0.505534 l 3.865271,4.108569 C 74.746564,50.331799 57.667925,46.288596 41.041203,40.411145 Z"
         id="path2"
         sodipodi:nodetypes="ccccc" /><path
         style="fill:#383a16;stroke:#000000;stroke-width:1;stroke-linecap:round;stroke-linejoin:round"
         d="m 46.761698,110.20595 c 12.80571,-1.50949 25.696772,-0.58268 38.673188,2.78043 l 4.84659,-4.02531 c -14.993899,-5.03826 -30.941037,-5.90609 -47.841416,-2.6035 z"
         id="path3"
         sodipodi:nodetypes="ccccc" /><path
         style="fill:none;stroke:#000000;stroke-width:1;stroke-linecap:round;stroke-linejoin:round"
         d="m 57.016784,45.0339 c -8.041495,20.166745 -7.994479,39.996468 0.141047,59.48917"
         id="path4"
         sodipodi:nodetypes="cc" /><path
         style="fill:none;stroke:#000000;stroke-width:1;stroke-linecap:round;stroke-linejoin:round"
         d="M 77.137024,105.65381 C 81.186899,85.968468 84.957734,66.268439 76.480918,45.923797"
         id="path5"
         sodipodi:nodetypes="cc" /><path
         style="fill:none;stroke:#000000;stroke-width:1;stroke-linecap:round;stroke-linejoin:round"
         d="M 51.170416,70.179159 C 38.890292,65.406849 30.654424,65.689858 26.46281,71.028186"
         id="path6"
         sodipodi:nodetypes="cc" /><path
         style="fill:none;stroke:#000000;stroke-width:1;stroke-linecap:round;stroke-linejoin:round"
         d="m 81.510927,69.23262 c 7.537273,-1.326801 12.92916,-5.275741 26.109933,0.295069"
         id="path7"
         sodipodi:nodetypes="cc" /><path
         style="display:inline;fill:url(#linearGradient2);stroke-width:2.6;stroke-linejoin:round"
         d="m 52.557352,9.7071754 c 2.478304,1.1531416 5.731115,3.6169896 7.971108,6.6766126 0.560876,1.90896 0.823864,3.251934 0.431499,4.207655 -3.654834,6.000136 -5.361826,9.216977 -9.321674,9.577071 -2.337963,0.212605 -9.181424,1.761879 -5.160018,8.920842 10.35588,18.435682 31.779368,19.566279 40.442549,0.758295 3.330271,-7.230101 -2.290902,-10.272458 -4.525129,-10.892985 -3.654221,-1.014912 -4.974722,-4.259791 -5.98754,-7.685497 -0.327676,-1.757536 -0.357464,-2.085213 0.08937,-4.021482 0.685141,-3.664016 1.608591,-5.779018 4.915142,-7.059934 C 71.919609,2.3373154 61.596074,0 52.557352,9.7071754 Z"
         id="path1-11"
         sodipodi:nodetypes="cccsssscccc" /><path
         style="display:inline;fill:none;stroke:#000000;stroke-width:2.6;stroke-linecap:round;stroke-linejoin:round;stroke-opacity:1"
         d="m 51.638285,30.168514 c -2.337963,0.212605 -9.181424,1.761879 -5.160018,8.920842 10.35588,18.435682 31.779368,19.566279 40.442549,0.758295 C 90.251087,32.61755 84.629914,29.575193 82.395687,28.954666 M 81.412659,10.187753 C 71.919609,2.337315 61.596074,0 52.557352,9.707175"
         id="path1-1-1"
         sodipodi:nodetypes="cssccc" /></g><g
       id="g7"
       inkscape:label="Mask"
       style="display:none"
       sodipodi:insensitive="true"><rect
         style="display:inline;fill:#000000;fill-opacity:1;stroke:none;stroke-width:2.6;stroke-linecap:round;stroke-linejoin:round"
         id="rect7"
         width="135.46666"
         height="135.46666"
         x="0"
         y="0" /><path
         style="display:inline;fill:#ff0000;fill-opacity:1;stroke-width:2.6;stroke-linejoin:round"
         d="m 52.557352,9.707175 c 2.478304,1.153142 5.731115,3.61699 7.971108,6.676613 0.560876,1.90896 0.823864,3.251934 0.431499,4.207655 -3.654834,6.000136 -5.361826,9.216977 -9.321674,9.577071 -2.337963,0.212605 -9.181424,1.761879 -5.160018,8.920842 10.35588,18.435682 31.779368,19.566279 40.442549,0.758295 3.330271,-7.230101 -2.290902,-10.272458 -4.525129,-10.892985 -3.654221,-1.014912 -4.974722,-4.259791 -5.98754,-7.685497 -0.327676,-1.757536 -0.357464,-2.085213 0.08937,-4.021482 0.685141,-3.664016 1.608591,-5.779018 4.915142,-7.059934 C 71.919609,2.337315 61.596074,0 52.557352,9.707175 Z"
         id="path1-11-2"
         sodipodi:nodetypes="cccsssscccc" /><path
         style="display:inline;fill:none;stroke:#000000;stroke-width:2.6;stroke-linecap:round;stroke-linejoin:round;stroke-opacity:1"
         d="m 51.638285,30.168514 c -2.337963,0.212605 -9.181424,1.761879 -5.160018,8.920842 10.35588,18.435682 31.779368,19.566279 40.442549,0.758295 C 90.251087,32.61755 84.629914,29.575193 82.395687,28.954666 M 81.412659,10.187753 C 71.919609,2.3373148 61.596074,-1.9999999e-7 52.557352,9.7071748"
         id="path1-1"
         sodipodi:nodetypes="cssccc" /></g></g><metadata
     id="metadata9"><rdf:RDF><cc:Work
         rdf:about=""><dc:creator><cc:Agent><dc:title>Kieran David Evans</dc:title></cc:Agent></dc:creator><dc:rights><cc:Agent><dc:title>CC BY-SA - https://creativecommons.org/licenses/by-sa/4.0/</dc:title></cc:Agent></dc:rights><cc:license
           rdf:resource="http://creativecommons.org/licenses/by-sa/4.0/" /></cc:Work><cc:License
         rdf:about="http://creativecommons.org/licenses/by-sa/4.0/"><cc:permits
           rdf:resource="http://creativecommons.org/ns#Reproduction" /><cc:permits
           rdf:resource="http://creativecommons.org/ns#Distribution" /><cc:requires
           rdf:resource="http://creativecommons.org/ns#Notice" /><cc:requires
           rdf:resource="http://creativecommons.org/ns#Attribution" /><cc:permits
           rdf:resource="http://creativecommons.org/ns#DerivativeWorks" /><cc:requires
           rdf:resource="http://creativecommons.org/ns#ShareAlike" /></cc:License></rdf:RDF></metadata></svg>
